#!OML:ASF F:\VICON\USERDATA\INSTALL\rory3\rory3.ASF
:FULLY-SPECIFIED
:DEGREES
64
root 0.14590802794090207 17.885975061483474 17.035244615055603 -3.5342874182985167 -0.9107873816448377 -5.974568978600397
lfemur -18.4756852651728 -0.5146586106069757 -16.49571477737458
ltibia 38.847648865486036
lfoot -11.364749024858877 -3.6248989467454544
ltoes -0.05686005328956423
rfemur 2.625439794827493 4.354438053516214 29.5940490613455
rtibia 41.70749080197991
rfoot -16.609552981243816 -9.56991348677844
rtoes -6.489595791033698
lowerback 10.316431023691955 2.267520405162106 5.618961451665205
upperback 0.17265180423330923 3.6420259242484154 1.400388873029809
thorax -4.971889956319976 1.7781049663509667 -1.7439879344798288
lowerneck -16.033871388097975 -3.154647955315439 -1.6265313959618948
upperneck 21.338892426707247 -4.144659399318826 0.5875542070399121
head 9.48616374185545 -2.0068484403027065 -0.11569575133129578
lclavicle -3.616362944163087e-16 5.803562888388565e-16
lhumerus -32.88318014420753 7.975118708020163 80.49206986065471
lradius 23.606374891602
lwrist 8.120230622553635
lhand -27.704030689372235 17.96416819210901
lfingers 7.12502
lthumb -1.2650249699424512 47.90794171875576
rclavicle -3.6163629431185836e-16 5.803562889090774e-16
rhumerus -27.833342016395818 -13.667447227738466 -78.17193229266492
rradius 33.2889279889865
rwrist 3.493679299630678
rhand -18.140264857651605 21.144479156093773
rfingers 7.12502
rthumb 8.188401053933303 -7.1309815499401354
65
root 0.1261746728203658 17.848271816516306 17.314551617888352 -4.11937805131854 -0.8859897761296434 -5.148628529356255
lfemur -17.971017926125413 -0.6204430875015796 -17.440139944980036
ltibia 38.03979585870249
lfoot -11.836969502544502 -3.106657397405928
ltoes -0.5739458681927592
rfemur 2.235024382254048 3.9794097365741 28.445180788492127
rtibia 44.8464326342949
rfoot -17.264552788041915 -9.748982661607755
rtoes -6.378675169290596
lowerback 10.477264086506938 2.2818203806182913 4.887527512528942
upperback 0.24713663245587147 3.5458693987625676 1.2810399502904204
thorax -4.9541643492902105 1.7343704761510823 -1.6219417927230166
lowerneck -16.04792688400197 -3.1440093127922046 -1.6472907373864445
upperneck 21.279531095029 -4.129892762037888 0.7349366007620552
head 9.453831158319286 -2.0001327260417665 -0.04166077414971033
lclavicle -3.6163629441341055e-16 5.803562888408155e-16
lhumerus -31.618834187010744 7.552200668379885 80.5856139920606
lradius 23.686518211137436
lwrist 8.017606932236891
lhand -28.020858930289712 17.584774023640097
lfingers 7.12502
lthumb -1.5558217603471944 47.43594744433968
rclavicle -3.6163629431941057e-16 5.803562889041307e-16
rhumerus -28.190881322655237 -14.439579242399212 -78.37706523633005
rradius 33.03230514067316
rwrist 3.390485235429718
rhand -18.13158711908083 21.053189396529667
rfingers 7.12502
rthumb 8.247971454136644 -7.219251019236714
66
root 0.1050432860781749 17.810382690646865 17.680350313758026 -4.451717475551151 -0.7959292062893693 -4.504322154693858
lfemur -17.65702889656966 -0.7000091666041373 -18.252398206282265
ltibia 37.321520471814516
lfoot -12.438449556019668 -2.243669365614482
ltoes -1.1771529724885275
rfemur 1.6632377908634943 3.585711777011261 27.448627177963708
rtibia 48.377835480497
rfoot -17.801801097013897 -9.867810828588512
rtoes -5.5948806935934785
lowerback 10.58226046154275 2.2989451344969143 4.280346412336719
upperback 0.29485216909432616 3.440504564703767 1.1698370552052828
thorax -5.017488197896639 1.6704948348433608 -1.5292656342036532
lowerneck -16.051377753124086 -3.1264217961221554 -1.6427768479513931
upperneck 21.25939854949608 -4.108455104285776 0.8475764901003568
head 9.453211505534831 -1.9866688721561572 0.014976920815563344
lclavicle -3.6163629441945135e-16 5.803562888369625e-16
lhumerus -30.912212815382087 6.3178715493201665 80.53394461557156
lradius 23.871388195664323
lwrist 7.757033755106905
lhand -28.02444647744258 17.212284948704166
lfingers 7.12502
lthumb -1.5751889925451632 46.89221594447478
rclavicle -3.6163629432009737e-16 5.803562889038975e-16
rhumerus -28.440545078882646 -14.995008678822783 -78.56274405913103
rradius 32.8116549517693
rwrist 3.1343141414296496
rhand -18.103250755490095 20.939737807205972
rfingers 7.12502
rthumb 8.30729521273118 -7.461602810754033
67
root 0.08599016420982752 17.774031761914657 17.999921712363292 -4.647019376586534 -0.7067150117532479 -3.894559542222217
lfemur -17.561136035062688 -0.6034103212232991 -19.035786621517563
ltibia 37.15348734046473
lfoot -13.060610308341353 -1.2629057450603287
ltoes -1.1302193155094824
rfemur 0.7814022991806286 3.255157005749204 26.44129171905485
rtibia 51.700771578587386
rfoot -17.974256500425867 -9.79058712870563
rtoes -4.455247152651131
lowerback 10.692097724065906 2.2955238387843355 3.6701391485529014
upperback 0.3552962219734438 3.288715639478912 1.060984654156342
thorax -5.039405231107377 1.618613471645956 -1.3289138200750858
lowerneck -16.120451086246614 -3.102368511816793 -1.5732698166425978
upperneck 21.2762424069545 -4.0730295925721585 0.9154822585170945
head 9.503593120822371 -1.9644355041140003 0.03676021056463258
lclavicle -3.616362944240545e-16 5.803562888341537e-16
lhumerus -29.543352635546274 5.572684456345557 80.64070197028757
lradius 24.08960427163935
lwrist 7.460995374462766
lhand -28.116578887760397 16.879892025265356
lfingers 7.12502
lthumb -1.6349131840081077 46.54268654202772
rclavicle -3.6163629433604474e-16 5.803562888935095e-16
rhumerus -28.601110695366057 -15.444702741403553 -78.80077232618278
rradius 32.6729888371714
rwrist 3.238126985145717
rhand -18.03351704798463 20.942108066152322
rfingers 7.12502
rthumb 8.381029048902235 -7.67460627396738
68
root 0.07571171024006595 17.756298270178856 18.322805629000396 -4.370185783319105 -0.4465830981607575 -3.709085838572256
lfemur -17.190987080666496 -0.7733706274857522 -19.319091747618405
ltibia 36.937185851697336
lfoot -13.810884001108569 -0.3390580684611364
ltoes 1.9102574174247575
rfemur -0.12995795563093004 2.945491144343248 25.880234363860076
rtibia 53.964890919404866
rfoot -17.904670105633045 -9.47602917506999
rtoes -4.752487114057991
lowerback 10.731644315291225 2.193607817277197 3.3071012758834977
upperback 0.35547951264007516 3.105087518057317 0.9804746330203378
thorax -5.165546688284037 1.531238507699045 -1.1988500245094318
lowerneck -16.161627586346288 -3.0755901901988456 -1.51750172659616
upperneck 21.274874071983184 -4.028621681440019 0.9103257801700757
head 9.522795965704042 -1.9438038501145363 0.034938179215708104
lclavicle -3.6163629442491096e-16 5.803562888337798e-16
lhumerus -28.924469166500423 4.123970928602377 80.41211698723846
lradius 24.51517861516927
lwrist 7.512456325796389
lhand -27.93741914172746 17.127746994261255
lfingers 7.12502
lthumb -1.4176206748399744 46.933551866823294
rclavicle -3.616362943315415e-16 5.803562888966387e-16
rhumerus -28.59003577979453 -15.745243062251507 -79.22558471010613
rradius 32.57021020248266
rwrist 3.126973788992524
rhand -18.062572802951017 20.769904251537998
rfingers 7.12502
rthumb 8.395432786931325 -8.025698260276695
